<svg width="347" height="68" viewBox="0 0 347 68" fill="none" xmlns="http://www.w3.org/2000/svg">
<path d="M0.256 66V0.143995H9.376V66H0.256ZM24.2178 66V15.504H31.0338L31.8018 23.088H32.4738C33.8178 21.04 35.3218 19.376 36.9858 18.096C38.7138 16.816 40.6018 15.888 42.6498 15.312C44.7618 14.672 47.0018 14.352 49.3698 14.352C52.5698 14.352 55.3538 14.896 57.7218 15.984C60.1538 17.072 62.0418 18.832 63.3858 21.264C64.7938 23.696 65.4978 26.992 65.4978 31.152V66H57.0498V32.304C57.0498 30.192 56.7618 28.464 56.1858 27.12C55.6738 25.776 54.9378 24.72 53.9778 23.952C53.0818 23.184 51.9618 22.64 50.6178 22.32C49.3378 22 47.8978 21.84 46.2978 21.84C43.9298 21.84 41.6898 22.416 39.5778 23.568C37.4658 24.72 35.7698 26.384 34.4898 28.56C33.2738 30.736 32.6658 33.328 32.6658 36.336V66H24.2178ZM79.9435 66V0.143995H126.6V8.016H89.0635V29.136H123.24V36.912H89.0635V66H79.9435ZM155.391 67.152C150.271 67.152 145.951 66.224 142.431 64.368C138.975 62.448 136.319 59.536 134.463 55.632C132.671 51.728 131.775 46.768 131.775 40.752C131.775 34.672 132.671 29.712 134.463 25.872C136.319 21.968 138.975 19.088 142.431 17.232C145.951 15.312 150.271 14.352 155.391 14.352C160.511 14.352 164.799 15.312 168.255 17.232C171.775 19.088 174.431 21.968 176.223 25.872C178.015 29.712 178.911 34.672 178.911 40.752C178.911 46.768 178.015 51.728 176.223 55.632C174.431 59.536 171.775 62.448 168.255 64.368C164.799 66.224 160.511 67.152 155.391 67.152ZM155.391 60.048C158.655 60.048 161.375 59.408 163.551 58.128C165.727 56.848 167.359 54.864 168.447 52.176C169.599 49.424 170.175 45.968 170.175 41.808V39.696C170.175 35.472 169.599 32.016 168.447 29.328C167.359 26.64 165.727 24.656 163.551 23.376C161.375 22.096 158.655 21.456 155.391 21.456C152.127 21.456 149.375 22.096 147.135 23.376C144.959 24.656 143.327 26.64 142.239 29.328C141.151 32.016 140.607 35.472 140.607 39.696V41.808C140.607 45.968 141.151 49.424 142.239 52.176C143.327 54.864 144.959 56.848 147.135 58.128C149.375 59.408 152.127 60.048 155.391 60.048ZM189.405 66V15.504H196.221L196.989 23.856H197.661C198.173 22.256 198.877 20.752 199.773 19.344C200.669 17.872 201.885 16.688 203.421 15.792C204.957 14.832 206.845 14.352 209.085 14.352C210.045 14.352 210.909 14.448 211.677 14.64C212.509 14.768 213.117 14.928 213.501 15.12V22.896H210.333C208.157 22.896 206.269 23.28 204.669 24.048C203.133 24.752 201.853 25.776 200.829 27.12C199.805 28.464 199.037 30.064 198.525 31.92C198.077 33.776 197.853 35.76 197.853 37.872V66H189.405ZM221.28 66V15.504H228.096L228.864 23.088H229.536C230.816 21.04 232.256 19.376 233.856 18.096C235.456 16.816 237.216 15.888 239.136 15.312C241.056 14.672 243.136 14.352 245.376 14.352C248.64 14.352 251.456 15.024 253.824 16.368C256.192 17.648 257.952 19.888 259.104 23.088H259.68C260.896 21.04 262.304 19.408 263.904 18.192C265.504 16.912 267.296 15.952 269.28 15.312C271.264 14.672 273.376 14.352 275.616 14.352C278.688 14.352 281.376 14.896 283.68 15.984C285.984 17.008 287.776 18.736 289.056 21.168C290.4 23.536 291.072 26.736 291.072 30.768V66H282.624V32.112C282.624 30.064 282.368 28.368 281.856 27.024C281.408 25.68 280.736 24.656 279.84 23.952C278.944 23.184 277.888 22.64 276.672 22.32C275.52 22 274.272 21.84 272.928 21.84C270.688 21.84 268.608 22.416 266.688 23.568C264.832 24.72 263.328 26.384 262.176 28.56C261.024 30.736 260.448 33.328 260.448 36.336V66H252V32.112C252 30.064 251.744 28.368 251.232 27.024C250.72 25.68 250.048 24.656 249.216 23.952C248.384 23.184 247.36 22.64 246.144 22.32C244.992 22 243.776 21.84 242.496 21.84C240.192 21.84 238.048 22.416 236.064 23.568C234.144 24.72 232.608 26.384 231.456 28.56C230.304 30.736 229.728 33.328 229.728 36.336V66H221.28ZM324.034 67.152C319.042 67.152 314.818 66.224 311.362 64.368C307.97 62.448 305.378 59.536 303.586 55.632C301.858 51.728 300.994 46.768 300.994 40.752C300.994 34.672 301.858 29.712 303.586 25.872C305.378 21.968 308.002 19.088 311.458 17.232C314.914 15.312 319.234 14.352 324.418 14.352C329.154 14.352 333.122 15.28 336.322 17.136C339.522 18.928 341.922 21.648 343.522 25.296C345.186 28.88 346.018 33.392 346.018 38.832V42.864H309.73C309.858 46.896 310.434 50.224 311.458 52.848C312.546 55.408 314.146 57.296 316.258 58.512C318.37 59.664 321.026 60.24 324.226 60.24C326.402 60.24 328.29 59.984 329.89 59.472C331.554 58.896 332.93 58.096 334.018 57.072C335.17 56.048 336.034 54.832 336.61 53.424C337.186 52.016 337.506 50.48 337.57 48.816H345.826C345.762 51.504 345.25 54 344.29 56.304C343.33 58.544 341.922 60.464 340.066 62.064C338.21 63.664 335.938 64.912 333.25 65.808C330.562 66.704 327.49 67.152 324.034 67.152ZM309.922 36.528H337.282C337.282 33.712 336.962 31.344 336.322 29.424C335.682 27.504 334.754 25.936 333.538 24.72C332.386 23.504 331.01 22.64 329.41 22.128C327.874 21.552 326.114 21.264 324.13 21.264C321.186 21.264 318.69 21.808 316.642 22.896C314.594 23.984 313.026 25.648 311.938 27.888C310.85 30.128 310.178 33.008 309.922 36.528Z" fill="#788085"/>
</svg>
